<!--?xml version="1.0" encoding="utf-8"?-->
<!-- Generator: Adobe Illustrator 19.1.1, SVG Export Plug-In . SVG Version: 6.00 Build 0)  -->
<svg version="1.1" id="_x31_0" xmlns="http://www.w3.org/2000/svg" xmlns:xlink="http://www.w3.org/1999/xlink" x="0px" y="0px" viewBox="0 0 512 512" style="width: 48px; height: 48px; opacity: 1;" xml:space="preserve">
<g>
	<path  d="M497.333,367.012c-1.555-13.188-6.516-25.524-14.122-35.297c6.594-13.5,10.786-29.325,11.871-45.227
		c1.317-20.945-2.714-40.496-11.714-56.633c-6.438-11.71-16.524-20.011-28.469-23.812c3.179-7.836,4.809-16.215,4.809-24.746
		c0-25.058-13.966-47.398-35.997-58.492l8.844-92.394c1.242-12.254-5.894-23.891-17.375-28.469C411.844,0.699,408.43,0,405.016,0
		c-8.531,0-16.754,4.035-21.874,10.785l-9.661,12.469L349.598,53.45h-0.125c-5.043,0-10.086,0.625-14.973,1.706
		c-11.25-8.144-24.902-12.644-38.711-12.644c-6.902,0-13.809,1.164-20.558,3.336c-6.672-2.172-13.574-3.336-20.558-3.336
		c-6.981,0-13.805,1.164-20.555,3.336c-6.672-2.172-13.578-3.336-20.48-3.336c-13.965,0-27.539,4.5-38.79,12.644
		c-4.886-1.082-9.93-1.706-14.972-1.706h-0.618l-32.973-42.665C121.012,4.035,112.868,0,104.41,0c-3.492,0-6.906,0.699-10.242,1.942
		c-11.402,4.5-18.539,16.214-17.375,28.469l8.844,92.394c-22.031,11.012-35.918,33.434-35.918,58.492
		c0,8.523,1.625,16.894,4.723,24.645c0.003,0.008,0.007,0.015,0.007,0.023c-11.945,3.879-22.031,12.18-28.546,23.89
		c-8.922,16.219-12.879,35.766-11.559,56.633c1.086,17.066,5.742,33.977,13.266,48.094c-6.437,9.234-10.629,20.558-12.101,32.503
		c-4.035,34.524,15.202,64.238,43.906,67.731c1.633,0.148,3.414,0.23,5.122,0.23c7.371,0,14.445-1.852,21.074-5.29
		c0.422-0.207,0.852-0.363,1.278-0.586c7.45,27.531,23.817,48.312,48.942,61.886C162.36,505.562,199.051,512,254.673,512
		c55.546,0,92.238-6.438,118.926-20.942c23.59-12.832,39.418-32.015,47.324-57.054c0.715-2.207,1.461-4.394,2.054-6.695
		c7.825,5.027,16.497,7.738,25.406,7.738c1.782,0,3.489-0.082,5.274-0.23C482.281,431.324,501.52,401.535,497.333,367.012z
		 M370.121,455.859c-1.203,0.977-2.535,1.844-3.824,2.75c-1.246,0.878-2.454,1.801-3.774,2.617c-1.762,1.086-3.66,2.062-5.554,3.043
		c-0.942,0.488-1.832,1.019-2.805,1.481c-2.789,1.316-5.707,2.534-8.762,3.652c-0.106,0.039-0.203,0.082-0.309,0.121
		c-23.074,8.348-53.551,11.137-90.422,11.137c-41.926,0-75.574-3.625-99.477-14.934c-0.844-0.402-1.618-0.863-2.438-1.289
		c-2.023-1.035-4.035-2.082-5.91-3.238c-1.218-0.754-2.324-1.606-3.48-2.414c-1.387-0.968-2.813-1.906-4.102-2.953
		c-1.184-0.957-2.238-2.031-3.344-3.058c-1.152-1.07-2.355-2.094-3.418-3.242c-0.84-0.902-1.559-1.918-2.344-2.867
		c-1.199-1.457-2.434-2.879-3.504-4.449c-0.301-0.442-0.535-0.942-0.824-1.387c-6.379-9.918-10.363-22.074-11.649-37.043h18.153
		v-11.25h-18.618v-5.664h18.618v-11.172h-18.618v-5.274h18.618V286.18l-4.266-0.778c-1.164-0.156-2.25-0.465-3.336-0.852
		c-0.387-0.156-0.774-0.312-1.086-0.546c-5.43-2.562-10.086-8.066-13.343-15.977v-0.16l-0.078-0.152
		c-0.23-0.391-0.309-0.774-0.465-1.165l-0.621-1.55v-0.078c-1.473-4.422-2.481-9.23-2.867-13.652c0-0.313,0-0.621-0.078-0.934
		c-0.078-1.551-0.078-3.102-0.078-4.653c0.157-2.406,0.465-4.808,1.008-6.984c1.164-5.121,3.414-9.539,6.594-13.187
		c3.336-3.879,7.68-6.672,12.801-8.219c1.863-0.621,3.801-1.011,5.817-1.168c1.086-0.152,2.094-0.152,3.258-0.152h1.32
		c9,0.309,14.195,5.43,16.832,8.844c0.778,0.93,1.242,1.706,1.633,2.25c1.238,1.782,2.246,3.722,3.258,5.508
		c0.386,0.774,0.851,1.625,1.316,2.402c1.008,1.71,2.094,3.648,3.57,5.199c1.551,1.863,3.801,3.722,8.61,4.418h0.156l2.793,0.473
		h0.93c18.465,0,34.989-8.691,45.614-22.191c9.39,6.515,20.793,10.394,33.047,10.394c12.336,0,23.738-3.879,33.125-10.394
		c10.55,13.5,27.074,22.191,45.617,22.191h0.93l2.794-0.473h0.156c5.195-0.77,7.758-2.945,10.008-6.125
		c1.238-1.707,2.246-3.722,3.41-5.742l0.313-0.621c1.551-2.637,2.871-5.039,4.656-7.289c0.23-0.313,0.462-0.626,0.696-0.934
		c4.266-4.962,9.699-7.68,16.136-7.91h1.317c1.09,0,2.176,0,3.262,0.152c2.016,0.157,3.957,0.547,5.817,1.168
		c5.042,1.547,9.465,4.34,12.801,8.219c3.102,3.648,5.351,8.066,6.594,13.187c0.542,2.25,0.851,4.578,1.008,7.062
		c0,1.008,0,1.859-0.078,2.637v1.317c0,0.468-0.078,1.007-0.078,1.554c-0.543,13.652-8.301,25.523-11.867,28.934
		c-1.942,1.785-3.957,3.18-6.207,4.114c-1.316,0.542-2.48,0.93-3.722,1.086l-1.863,0.39l-2.402,0.387v84.246h18.618v5.274H377.09
		v11.172h18.618v5.664H377.09v11.25h16.871l1.278,0.012c-1.278,14.867-5.223,26.946-11.528,36.828
		c-0.335,0.52-0.609,1.102-0.961,1.614c-1.019,1.496-2.203,2.844-3.34,4.238c-0.839,1.023-1.617,2.113-2.519,3.082
		c-0.996,1.074-2.133,2.031-3.207,3.043C372.512,453.699,371.383,454.84,370.121,455.859z M286.297,193.93l-10.754-3.328
		l-4.578-1.394l-5.352-8.918l-4.766-7.863l-1.394-2.39l8.489-1.93c1.781-0.387,3.258-1.703,3.878-3.489l0.309-1.086l0.699-2.019
		l1.703-5.043l0.39-1.238l9.309,1.086h0.156l2.324,0.234l10.398,1.242c1.473,0.149,2.946-0.312,4.11-1.324
		c0.234-0.152,0.387-0.386,0.543-0.539c0.621-0.699,1.012-1.477,1.164-2.328c0.078-0.309,0.156-0.621,0.156-1.012l0.153-8.918
		l0.156-3.879c0.156-0.312,0.313-0.542,0.465-0.777l28.394,11.714l0.93,1.786v0.074l1.398,2.641l5.43,10.461l2.992,5.969
		l-6.02-0.836l-18.382-2.637l-2.95-0.469c-1.164-0.152-2.406,0.078-3.414,0.699c-0.387,0.234-0.699,0.466-1.008,0.774
		c-1.164,1.09-1.785,2.719-1.629,4.348l0.621,5.738l0.375,3.851l0.05,0.95l-17.183-3.402c-1.473-0.313-3.023,0-4.187,0.93
		c-1.242,0.851-2.016,2.25-2.172,3.722l-0.653,7.246L286.297,193.93z M398.016,100.386c0.004,0,0.012,0,0.016,0l-2.168,23.039
		l-0.699,7.524c-1.321,3.179-5.586,4.808-11.481,4.808c-5.508,0-12.336-1.398-19.394-4.191c-0.156,0-0.234-0.074-0.313-0.074
		c-4.808-1.938-9.074-4.187-12.64-6.668c-7.371-5.125-11.328-10.867-9.699-14.976l10.781-14.039l7.992-10.321
		c4.188,4.114,10.165,7.836,17.532,10.703c7.136,2.875,13.886,4.27,19.629,4.27C397.719,100.461,397.868,100.457,398.016,100.386z
		 M395.551,84.016c-2.945-0.313-6.902-1.086-11.637-2.95c-7.445-2.95-11.71-6.516-13.496-8.61l4.344-5.507l30.254-39.258
		l-5.351,56.325C398.653,84.172,397.258,84.172,395.551,84.016z M149.016,85.566l7.993,10.242l10.781,14.039
		c1.629,4.109-2.406,9.851-9.699,14.976c-3.566,2.481-7.832,4.73-12.641,6.668c-0.078,0-0.234,0.074-0.312,0.074
		c-7.059,2.793-13.887,4.191-19.395,4.191c-5.894,0-10.238-1.629-11.48-4.808l-0.699-7.524l-2.25-23.042
		c0.157,0.078,0.391,0.078,0.543,0.078c5.742,0,12.492-1.394,19.629-4.27c6.934-2.691,13.094-6.461,17.434-10.546
		C148.949,85.621,148.985,85.594,149.016,85.566z M125.512,81.066c-4.812,1.863-8.766,2.637-11.714,2.95
		c-1.629,0.156-3.023,0.156-4.035,0l-5.352-56.325l30.254,39.258l4.266,5.507C137.223,74.55,132.957,78.117,125.512,81.066z
		 M39.481,369.883c1.008-8.066,3.723-15.36,7.602-21.102c2.402-3.645,5.274-6.672,8.454-8.922c1.554-1.16,3.262-1.629,4.89-1.629
		c0.512,0,1.016,0.09,1.512,0.187c0.234,0.043,0.461,0.09,0.687,0.157c1.004,0.285,1.95,0.766,2.805,1.406
		c0.152,0.117,0.309,0.222,0.457,0.347c2.465,2.094,4.012,5.57,3.535,9.614l-0.23,2.25c-0.465,3.496-2.406,6.442-5.121,8.226
		c-0.309,0.157-0.622,0.391-0.856,0.622c-2.637,2.25-4.652,6.285-5.273,11.094c-0.93,7.602,2.25,14.274,7.058,14.894H65.7
		c4.578,0,8.843-5.586,9.699-12.878c0.152-0.934,0.152-1.942,0.152-2.871c0-1.942,0.465-3.801,1.398-5.43
		c0.852-1.551,2.094-2.95,3.645-3.879c1.473-0.93,3.027-1.317,4.578-1.317c4.808,0,9.152,4.184,9.074,10.238
		c-0.078,1.786-0.156,3.645-0.386,5.508c-0.621,5.043-1.938,9.774-3.722,13.961c-5.278,12.34-15.129,20.637-25.602,20.637
		c-0.774,0-1.551-0.074-2.325-0.156C47.235,409.058,36.997,390.672,39.481,369.883z M70.121,234.898
		c11.328,0,24.59,7.992,33.512,14.43v87.894c-6.129,4.11-12.024,5.977-17.531,5.977h-0.774c-0.168-0.844-0.57-1.602-0.809-2.422
		c-0.199-0.688-0.422-1.356-0.672-2.02c-0.57-1.511-1.27-2.941-2.106-4.328c-0.441-0.734-0.914-1.442-1.422-2.121
		c-0.461-0.622-0.758-1.328-1.278-1.91c-4.808-5.434-11.558-8.535-18.617-8.535c-1.32,0-2.562,0.156-3.801,0.309
		c-12.414-21.336-15.906-54.379-3.262-77.188C57.477,237.614,63.449,234.898,70.121,234.898z M450.785,410.84
		c-0.774,0.082-1.55,0.156-2.402,0.156c-13.808,0-26.457-14.43-29.094-33.59c-0.078-0.313-0.152-0.699-0.152-1.008
		c-0.234-1.863-0.391-3.722-0.391-5.508c0-1.316,0.157-2.48,0.543-3.566c0-0.238,0.156-0.469,0.234-0.699
		c1.394-3.726,4.73-5.973,8.301-5.973c1.473,0,3.102,0.387,4.574,1.317c1.242,0.778,2.406,1.859,3.258,3.18
		c1.09,1.706,1.786,3.801,1.786,5.976v0.153c0,0.93,0,1.938,0.156,2.871c0.855,7.293,5.121,12.878,9.695,12.878h0.621
		c4.813-0.621,7.993-7.293,7.137-14.894c-0.695-5.355-3.102-9.778-6.129-11.715c-0.23-0.156-0.465-0.312-0.617-0.468
		c-2.406-1.782-4.114-4.574-4.5-7.758l-0.234-2.25c-0.524-4.035,1.031-7.504,3.48-9.598c0.153-0.129,0.317-0.242,0.473-0.363
		c0.852-0.637,1.789-1.114,2.782-1.402c0.23-0.066,0.465-0.118,0.703-0.164c0.488-0.094,0.98-0.184,1.484-0.184
		c1.707,0,3.336,0.469,4.965,1.629c2.485,1.786,4.809,4.035,6.828,6.672c4.73,6.051,8.066,14.195,9.153,23.352
		C475.922,390.672,465.758,409.058,450.785,410.84z M455.985,244.984c7.828,14.074,9.477,32.004,6.707,48.692
		c-0.035,0.191-0.043,0.386-0.078,0.578c-0.25,1.454-0.656,2.84-0.972,4.27c-2.008,8.614-5.082,16.684-9.066,23.34h-0.082
		c-6.981,0-13.809,3.102-18.617,8.535c-3.102,3.488-5.2,7.832-6.13,12.41c-1.472,0.234-2.949,0.39-4.422,0.39
		c-5.586,0-11.481-1.867-17.531-5.977v-87.894c8.844-6.438,22.106-14.43,33.512-14.43
		C445.977,234.898,451.949,237.614,455.985,244.984z" style="fill: rgb(0,0,0);"></path>
	<path class="st0" d="M322.399,428.066h-0.543l-10.938-19.008c-0.542-1.008-1.629-1.476-2.562-1.476
		c-1.086,0-2.094,0.468-2.637,1.476l-12.179,21.176c-25.989,1.398-51.664,1.398-77.653,0l-12.179-21.176
		c-0.622-1.008-1.63-1.476-2.637-1.476c-1.008,0-2.02,0.468-2.562,1.476l-3.45,5.954l-7.977,13.054h-0.054
		c-0.309-0.082-0.543-0.082-0.852-0.082c-3.648,0-6.75,2.641-7.214,6.286c-0.699,5.508,3.336,10.554,9,11.172
		c44.914,4.187,88.59,4.187,133.504,0c5.199-0.543,9.078-4.887,9.078-9.93c0-0.387,0-0.778-0.078-1.242
		C330.001,430.39,326.356,427.598,322.399,428.066z M305.337,434.426l-5.856-0.082l2.746-4.653l6.129-10.625l5.586,9.695
		l2.214,3.848l0.957,1.816H305.337z M198.005,434.426l-5.734-0.078l3.214-5.586l5.586-9.695l6.129,10.625l1.851,3.23l0.778,1.504
		H198.005z" style="fill: rgb(0,0,0);"></path>
	<path class="st0" d="M225.582,336.137c-6.129,1.086-11.714,4.11-16.058,8.61c-5.66,5.898-8.61,13.578-8.301,21.722
		c0.39,9.93,5.742,18.617,13.656,23.738c4.344,2.793,9.387,4.422,14.817,4.652h1.086c5.742,0,11.325-1.629,16.059-4.652
		c0.773-0.465,1.55-1.008,2.25-1.629c3.336-2.637,7.832-2.637,11.172,0c0.774,0.621,1.55,1.164,2.324,1.629
		c5.043,3.258,11.016,4.886,17.145,4.652c5.43-0.23,10.473-1.859,14.738-4.652c7.914-5.043,13.266-13.809,13.656-23.738
		c0.309-8.145-2.641-15.824-8.226-21.722c-4.418-4.5-10.004-7.524-16.055-8.61c-2.484-13.809-14.586-24.282-29.171-24.282
		C240.169,311.855,228.067,322.328,225.582,336.137z M278.567,347.152c4.965,0,9.621,2.02,13.035,5.586
		c3.488,3.57,5.274,8.301,5.039,13.266c-0.309,9.23-8.066,17.062-17.375,17.453c-4.266,0.157-8.535-1.242-11.867-3.878
		c-7.45-5.895-17.922-5.895-25.371,0c-3.41,2.637-7.602,4.035-11.867,3.878c-9.309-0.39-17.066-8.222-17.457-17.453
		c-0.153-4.965,1.633-9.695,5.042-13.266c3.493-3.566,8.149-5.586,13.114-5.586h5.664v-5.738c0-10.008,8.145-18.078,18.149-18.078
		c10.007,0,18.156,8.07,18.156,18.078v5.738H278.567z" style="fill: rgb(0,0,0);"></path>
	<path class="st0" d="M229.153,360.262c-3.957-2.562-6.207-1.32-7.758,0.93c-1.473,2.328-1.707,4.887,2.172,7.45
		c3.957,2.637,11.637,4.965,13.109,2.637C238.227,368.95,233.032,362.898,229.153,360.262z" style="fill: rgb(0,0,0);"></path>
	<path class="st0" d="M272.673,371.278c1.55,2.328,9.152,0,13.109-2.637c3.879-2.562,3.723-5.122,2.172-7.45
		c-1.55-2.25-3.801-3.492-7.679-0.93C276.317,362.898,271.2,368.95,272.673,371.278z" style="fill: rgb(0,0,0);"></path>
	<path class="st0" d="M411.223,291.996c-3.957,10.321-1.863,19.938,7.68,23.66c8.531,3.336,16.445-1.706,19.55-9.699
		c3.258-8.378,0.153-15.277-6.363-17.84c-2.957-1.156-5.832-1.038-8.285-0.144c-0.508,0.125-1.016,0.238-1.539,0.386
		c3.274-5.05,8.973-8.988,17.039-7.066c1.472,0.387,2.714,0.774,3.722,1.16l2.484-6.359
		C425.497,268.258,415.024,282.375,411.223,291.996z M430.75,296.867c0.02,0.078,0.024,0.164,0.039,0.246
		c0.402,1.816,0.187,3.945-0.641,6.054c-1.859,4.73-5.351,7.91-8.918,6.515c-4.114-1.629-4.656-6.828-2.641-12.335
		c1.863-4.731,6.207-5.43,8.691-4.5C429.157,293.574,430.281,295.047,430.75,296.867z" style="fill: rgb(0,0,0);"></path>
	<path class="st0" d="M66.321,282.453c1.086-0.386,2.25-0.773,3.722-1.16c6.535-1.542,11.477,0.707,14.875,4.258
		c0.879,1.012,1.551,2.035,1.996,2.954c-2.687-1.394-6.094-1.754-9.656-0.387c-6.516,2.563-9.543,9.462-6.285,17.84
		c3.105,7.993,11.019,13.035,19.472,9.699c9.543-3.722,11.715-13.339,7.68-23.66c-3.703-9.574-14.102-23.582-34.004-15.996
		c-0.043,0.016-0.09,0.019-0.133,0.035l0.004,0.008c-0.054,0.019-0.102,0.031-0.156,0.05L66.321,282.453z M78.606,297.152
		c0.019-0.102,0.027-0.206,0.05-0.304c0.461-1.809,1.582-3.274,3.488-4c2.406-0.93,6.829-0.231,8.692,4.5
		c2.015,5.507,1.473,10.706-2.641,12.335c-3.566,1.395-7.058-1.785-8.922-6.515C78.453,301.074,78.223,298.961,78.606,297.152z" style="fill: rgb(0,0,0);"></path>
	<path class="st0" d="M361.497,283.691c-0.387-1.004-0.855-2.011-1.321-3.019c-0.152-0.156-0.23-0.39-0.308-0.622l10.473-1.863
		l6.75-1.164l0.774-0.156l1.942-0.386c0.621-0.078,1.164-0.234,1.781-0.543c1.164-0.465,2.328-1.238,3.336-2.25
		c2.328-2.246,9.234-12.722,9.234-23.972c0-1.317,0.078-2.481,0.078-3.641c-0.157-2.332-0.469-4.657-1.164-6.828
		c-2.25-7.141-7.68-12.805-15.981-13.965v-0.082c-1.012-0.074-2.098-0.149-3.262-0.149h-1.008c-4.344,0.149-7.214,2.016-9.461,4.731
		l-0.469,0.465c-1.473,1.859-2.637,4.035-3.875,6.285c-0.699,1.16-1.32,2.406-2.098,3.566c-0.621,1.238-1.394,2.481-2.25,3.645
		c-3.258,4.656-7.91,8.691-16.059,9.851l-70.98,11.793c-4.5,0.778-7.367,4.73-6.363,8.922c2.176,9.93,11.094,17.141,21.414,18.465
		c-0.078,1.316-0.078,2.554,0,3.801c0.078,1.394,0.23,2.633,0.543,3.957c2.793,15.359,15.902,28.469,33.512,31.57
		c2.015,0.386,4.035,0.621,5.973,0.699h1.863c3.336,0,6.594-0.386,9.773-1.086c3.801-0.93,7.371-2.329,10.707-4.188
		c9.465-5.199,16.367-14.121,18.309-25.058c0.93-5.039-0.621-15.129-0.621-15.129C362.348,286.098,361.961,284.859,361.497,283.691z
		 M324.571,321.317c-1.863,0-3.649-0.153-5.43-0.383c-0.157-0.082-0.234-0.082-0.391-0.082c-7.91-1.394-14.738-5.507-19.39-11.48
		c-2.25-3.023-3.805-6.359-4.656-9.774c-0.313-1.242-0.465-2.481-0.543-3.801c-0.078-1.238-0.078-2.558,0.078-3.879l13.242-2.402
		l0.004,0.136c-0.054,0.149-0.066,0.344-0.137,0.481c-0.156,1.168-0.23,2.25-0.23,3.336c0,1.32,0.23,2.562,0.539,3.801
		c1.09,4.114,3.726,7.68,7.371,9.93c1.707,1.09,3.645,1.785,5.742,2.172c1.007,0.156,1.938,0.234,2.945,0.234
		c1.321,0,2.641-0.156,3.879-0.465c4.035-0.934,7.606-3.414,9.855-6.906c1.004-1.473,1.782-3.176,2.25-4.965
		c0.074-0.386,0.23-0.852,0.309-1.32c0.234-1.547,0.308-3.02,0.156-4.574c-0.078-0.387-0.156-0.778-0.156-1.242
		c-0.078-0.386-0.157-0.851-0.309-1.238c0-0.078-0.078-0.156-0.078-0.312c-0.078-0.309-0.156-0.622-0.312-0.93
		c-0.231-0.777-0.543-1.554-1.008-2.25c-0.157-0.386-0.387-0.699-0.543-1.086c-0.058-0.059-0.078-0.106-0.114-0.172l-0.019-0.062
		l6.649-1.161l3.57-0.621c0.774,1.082,1.473,2.25,2.094,3.492c0.542,1.16,1.007,2.398,1.398,3.645
		c0.308,0.851,0.539,1.781,0.695,2.637c0.543,2.793,0.621,5.586,0.078,8.375c-1.164,6.441-5.042,12.023-10.472,15.75
		c-3.106,2.094-6.672,3.645-10.629,4.5C328.914,321.164,326.742,321.317,324.571,321.317z" style="fill: rgb(0,0,0);"></path>
	<path class="st0" d="M186.719,332.801c1.938-0.078,3.954-0.313,5.973-0.699c17.61-3.102,30.718-16.137,33.512-31.57
		c0.234-1.324,0.386-2.562,0.465-3.957c0.078-1.246,0.156-2.485,0.078-3.801c10.317-1.324,19.161-8.535,21.41-18.465
		c0.934-4.192-1.859-8.145-6.359-8.922l-70.981-11.793c-6.75-1.008-11.019-3.878-14.121-7.367c-1.707-1.938-3.023-3.957-4.187-6.129
		c-0.157-0.156-0.313-0.39-0.391-0.621c-1.473-2.559-2.789-5.122-4.266-7.371c-0.465-0.695-0.93-1.317-1.398-1.859
		c-2.324-2.946-5.274-5.047-9.926-5.196h-0.934c-1.164,0-2.25,0.074-3.258,0.231c-8.301,1.16-13.73,6.824-15.981,13.965
		c-0.699,2.171-1.086,4.496-1.164,6.828c0,1.16,0,2.324,0.078,3.641c0.308,4.347,1.32,9.234,2.949,13.656
		c0.157,0.386,0.309,0.778,0.465,1.164c2.172,5.274,5.278,9.695,9,11.324c0,0.078,0.078,0.078,0.153,0.078
		c0.621,0.309,1.164,0.465,1.785,0.543l2.715,0.469l2.793,0.538l7.523,1.398l5.434,0.93l1.223,0.269l0.164,0.059
		c-0.618,1.16-1.082,2.316-1.543,3.546c-0.543,1.168-0.93,2.406-1.242,3.649l-0.078,0.312c-1.238,4.731-1.472,9.778-0.542,14.817
		c1.863,10.938,8.843,19.859,18.309,25.058c3.258,1.859,6.906,3.258,10.706,4.188c3.18,0.699,6.438,1.086,9.774,1.086H186.719z
		 M171.797,284.207c-0.293,0.375-0.523,0.746-0.672,1.195c-0.386,0.695-0.778,1.473-1.008,2.25
		c-0.465,1.242-0.777,2.481-0.855,3.723v0.312c-0.153,1.391-0.078,2.871,0.156,4.262c0.078,0.468,0.157,0.859,0.234,1.242
		c0.543,1.867,1.317,3.57,2.246,5.043c2.328,3.492,5.898,5.973,9.93,6.906c1.242,0.309,2.562,0.465,3.882,0.465
		c0.93,0,1.938-0.078,2.946-0.234c2.094-0.387,4.035-1.082,5.742-2.172c3.644-2.25,6.281-5.816,7.367-9.93
		c0.312-1.238,0.469-2.481,0.543-3.801c0-1.086-0.074-2.168-0.231-3.336c-0.066-0.133-0.082-0.332-0.133-0.527l0.004-0.09
		l13.238,2.402c0.156,1.321,0.156,2.641,0.078,3.879c-0.078,1.32-0.313,2.558-0.622,3.801c-0.777,3.414-2.328,6.75-4.652,9.774
		c-4.578,5.973-11.406,10.086-19.32,11.48l-0.387,0.082c-1.781,0.23-3.644,0.383-5.43,0.383c-2.25,0-4.422-0.153-6.438-0.618
		c-3.957-0.855-7.602-2.406-10.629-4.5c-5.508-3.726-9.386-9.309-10.473-15.75c-0.542-2.79-0.465-5.582,0.078-8.375
		c0.152-0.856,0.386-1.786,0.621-2.637c0.387-1.246,0.93-2.485,1.473-3.645c0.621-1.242,1.321-2.41,2.094-3.492l3.57,0.621
		l4.887,0.852l1.332,0.289L171.797,284.207z" style="fill: rgb(0,0,0);"></path>
</g>
</svg>
