<!--?xml version="1.0" encoding="utf-8"?-->
<!-- Generator: Adobe Illustrator 19.1.1, SVG Export Plug-In . SVG Version: 6.00 Build 0)  -->
<svg version="1.1" id="_x31_0" xmlns="http://www.w3.org/2000/svg" xmlns:xlink="http://www.w3.org/1999/xlink" x="0px" y="0px" viewBox="0 0 512 512" style="width: 48px; height: 48px; opacity: 1;" xml:space="preserve">
<g>
	<path d="M34.715,512h442.547c2.878,0,5.597-1.442,7.198-3.762c1.52-2.48,1.84-5.519,0.801-8.238
		c-4-9.442-9.121-19.199-15.281-28.96c-28.718-45.038-66.876-56.799-89.837-63.916l-1.762-0.562
		c-3.758-1.039-7.038-2.078-9.679-3.121c-1.519-1.758-7.281-8.558-21.518-31.999c-4.481-7.117-11.84-11.679-19.918-12.558
		l-1.203-24.718c1.442-0.801,13.679-8.562,17.121-10.722c0.48-0.316,0.801-0.48,0.878-0.48c0.082,0.402,0.563,8.242-5.758,21.362
		c0,0.078-0.082,0.16-0.082,0.316c-0.16,0.242-0.32,0.485-0.398,0.722c-0.879,1.68-1.84,3.36-2.961,5.199c0,0,0.046,0,0.074,0h0.004
		c0.031,0,0.042,0,0.082,0c-0.078,0.078-0.078,0.16-0.078,0.16s14.718-0.718,42.475-31.038c1.122-1.199,2-2.641,3.043-3.922
		c1.359-1.52,2.558-3.121,3.758-4.801c1.922-2.558,3.679-5.199,5.363-8c1.117-1.758,2.238-3.598,3.277-5.519
		c1.122-2.16,2.242-4.238,3.282-6.48c1.277-2.718,2.48-5.438,3.598-8.238c0.961-2.48,1.922-5.038,2.801-7.597
		c0.242-0.723,0.402-1.524,0.64-2.242c7.68-23.999,10.558-51.279,9.84-79.036c-1.52-55.038-11.281-95.118-43.917-137.355
		c-35.202-45.678-93.516-67.118-138.796-51.358c-88.079-2.961-121.437,96.794-127.117,151.354c-3.441,4.078-6.238,9.679-7.918,16.32
		c-5.121,20.796-1.203,53.037,14.238,70.954c3.199,3.762,6.719,6.961,10.558,9.679c2.961,6.16,6,11.519,8.801,16.242
		c2.558,4.481,4.878,8.398,6.48,12c9.441,21.597,6.878,43.596,5.039,59.755l-0.481,4.082l-0.238,1.437h0.043v0.008l0.035-0.008
		v0.165l5.523-1.364c7.758-1.918,20.078-9.519,28.636-15.358c1.16-0.722,2.144-1.418,3.042-2.023l0.309-0.126
		c-0.484,4.07-1.446,9.801-3.75,17.27l-1.199,4.16l-0.641,1.758h0.054l-0.004,0.004l0.016-0.004h0.012v0.16l6.16-1.039
		c0.242-0.078,2.8-0.558,6.159-1.758c0.332-0.133,0.657-0.218,0.985-0.328l0.218-0.039l-0.562,10.445
		c-7.999,0.879-15.437,5.442-19.917,12.641c-14.16,23.28-19.922,30.158-21.519,31.917c-2.562,1.042-5.922,2.082-9.601,3.121
		l-2,0.641c-22.718,7.038-60.959,18.8-89.598,63.838c-6.238,9.761-11.359,19.518-15.277,28.96c-1.122,2.718-0.801,5.758,0.801,8.238
		C29.117,510.558,31.914,512,34.715,512z M134.793,238.408c-0.402-0.16-0.722-0.398-1.043-0.641
		c-1.758-1.121-3.519-2.48-5.277-4.078c-0.321-0.242-0.641-0.559-0.879-0.879c-0.882-0.801-1.683-1.602-2.48-2.562
		c-10.16-11.839-13.121-35.518-10-50.557c1.52-7.519,3.84-10.082,4.481-10.242c0.558-0.317,1.277-0.398,1.835-0.398
		c4.641,0,9.121,5.598,11.121,8.48c-0.32,6.558-0.64,23.518,2.961,49.678c0.336,2.786,0.821,5.836,1.282,8.851
		c0.156,1.258,0.32,2.489,0.457,3.809C136.414,239.404,135.637,238.943,134.793,238.408z M275.667,200.647
		c-1.922-5.437-1.762-9.999,0.559-13.437c4.16-6.16,15.198-9.762,32.081-10.48h1.039c1.999-0.16,4.398-0.238,7.121-0.238
		c5.519,0,10.159,0.477,13.917,1.438c7.203,1.84,11.203,5.519,11.922,10.8c0.16,1.442,0.321,2.879,0.321,4.238
		c0.48,9.042-1.359,16.082-5.68,20.96c-4.961,5.762-13.441,8.562-25.202,8.562h-0.559c-27.998-0.16-31.596-10.722-34.799-19.921
		v-0.078C276.148,201.85,275.905,201.21,275.667,200.647z M303.268,84.894c4.637,1.602,8.156,1.68,9.277,1.758h0.028
		c0.09,0.012,0.21,0.028,0.301,0.039l-0.012-0.039h0.164l-0.398-1.598l-0.32-1.359l-0.562-2.16l-0.989-5.531l-0.309-2.07h0.02
		c0.558-0.161,1.598-0.399,2.957-0.641c2.242-0.238,5.203-0.238,8.48,0.641c0.68,0.226,1.418,0.461,2.106,0.75
		c0.043,0.031,0.098,0.035,0.137,0.066v-0.016v-0.082c0.078,0.082,0.078,0.082,0.16,0.082c-0.082-0.8-0.16-1.519-0.242-2.32
		c-0.078-0.718-0.238-1.519-0.398-2.32c-0.558-3.199-1.359-6-2.32-8.641c-0.145-0.534-0.289-1.015-0.438-1.511l-0.164-0.898
		c3.637,2.086,15.523,9.926,20.202,27.132c0.398,1.277,0.719,2.558,0.879,3.918c0.238,1.359,0.48,2.722,0.64,4.082
		c0,0.41,0.07,0.794,0.141,1.238c-0.008,0.07-0.004,0.114-0.011,0.191c-1.75-0.469-3.336-0.789-4.93-1.109
		c-1.359-0.242-2.801-0.481-4.078-0.641c-3.105-0.379-5.293-0.469-5.933-0.547c-0.055-0.031-0.188-0.015-0.234-0.058l0.015,0.043
		h-0.168l1.199,4.16l2.16,7.519v0.082c0.078,0,0.078,0,0.078,0v0.082l0.16,0.558l-0.078,1.84c-0.801,0-2.64-0.082-5.042-0.641
		c-6.32-1.281-16.718-5.359-24.155-18.078c-0.321-0.562-0.641-1.202-0.883-1.762c-0.718-1.281-1.281-2.64-1.758-4.082
		C300.467,83.773,301.905,84.414,303.268,84.894z M285.026,109.291c7.121,17.679,20.398,35.921,33.999,52.799
		c0.574,0.718,1.152,1.394,1.73,2.106l-0.047,0.023c-0.558-0.043-1.125-0.09-1.683-0.129c-3.359-0.16-6.641-0.321-9.679-0.321
		c-5.082,0-9.774,0.462-14.066,1.258l-0.734-1.894c-4.32-11.282-8.558-23.601-9.519-40.8
		C284.866,118.252,284.788,114.014,285.026,109.291z M156.152,166.891c1.278-10.718,3.598-23.198,7.598-38.718
		c3.058-12.168,8.542-22.175,15.57-30.296c2.309-2.617,4.816-5.094,7.562-7.402c0.492,11.606,2.906,29.597,12.789,44.737
		c1.679,0.719,0.32-2.718,0.718-21.921c0.066-1.5,0.153-3.218,0.254-4.938c0.054-0.367,0.09-0.722,0.167-1.094
		c9.152,27.726,16.625,42.554,39.738,53.951c4.8,2.321,10.159,4.641,16.402,6.801l-0.004-0.008c0.012,0.004,0.019,0.008,0.031,0.012
		c-0.035-0.055-0.062-0.106-0.098-0.16c0.078,0.007,0.152,0.074,0.23,0.074c-13.601-21.518-18.402-38.717-19.121-60.638
		c-0.125-3.445-0.074-7.094,0-10.785c0.047-0.679,0.055-1.339,0.118-2.031c2.695,23.019,17.355,52.241,36.6,66.896
		c0.321,0.238,0.641,0.559,1.039,0.801c0.641,0.477,1.363,0.879,2,1.36c1.68,1.117,3.281,2.078,5.042,2.961
		c0.723,0.386,1.477,0.617,2.219,0.91l0.32,0.215c-0.847,0.293-1.738,0.546-2.539,0.875c-7.042,2.558-12.8,6.078-17.839,9.597
		c-1.679-0.16-4.882-0.48-8.96-0.48c-4.082,0-7.282,0.32-8.961,0.48c-10.398-7.199-23.839-14.32-44.397-14.32
		c-14.058,0-32.362,2.699-43.624,4.629c-1.058,0.164-2.125,0.332-3.062,0.485C156.023,168.211,156.066,167.578,156.152,166.891z
		 M236.309,200.647c-0.16,0.563-0.402,1.203-0.641,1.844v0.078c-3.199,9.198-6.878,19.761-34.878,19.921h-0.562
		c-5.84,0-10.878-0.641-15.117-2.082c-4.16-1.442-7.519-3.598-10.082-6.481c-4.961-5.597-6.718-14.078-5.281-25.198
		c1.042-8.082,9.679-12.238,25.761-12.238c2.718,0,5.199,0.078,7.121,0.238h1.117c16.8,0.718,27.921,4.32,31.999,10.48
		C238.067,190.648,238.309,195.21,236.309,200.647z M178.151,288.726c-18.242-24.398-21.761-52.397-22.878-76.798l-0.082-2
		c-0.207-4.61-0.336-9.187-0.371-13.938c0.383,0.547,0.695,1.164,0.852,1.859l0.32,1.438c1.84,7.922,6.718,28.882,29.678,33.761
		c6.718,1.442,13.281,2.238,19.441,2.238c12.718,0,23.519-3.118,29.597-8.558c7.199-6.398,12.32-18.32,15.359-25.518
		c0.562-1.282,1.121-2.481,1.523-3.282c0.558-1.281,1.598-2.641,4.398-2.641c2.878,0,3.918,1.36,4.48,2.641
		c0.398,0.801,0.879,2,1.438,3.359c3.042,7.121,8.16,19.042,15.362,25.441c6.078,5.441,16.878,8.558,29.679,8.558
		c6.16,0,12.718-0.797,19.437-2.238c12.578-2.687,19.69-10.187,23.929-17.738c0.106-0.176,0.21-0.352,0.312-0.531
		c0.215-0.39,0.41-0.778,0.606-1.168c0.473-0.875,0.95-1.738,1.383-2.672c0.195,2.008,0.273,4.019,0.09,6.027
		c-1.758,18.562-6.558,54.881-18.16,70.24c0,0-0.238,0.48-0.558,1.199c-0.082,0.16-0.082,0.238-0.16,0.32
		c-13.922,18.402-23.28,26.64-30.237,31.839c-1.762,1.359-3.282,2.48-4.801,3.519c-2.16,1.519-4.641,3.199-7.442,4.801
		c-5.758,3.519-13.12,6.878-23.12,8.48c-3.598,0.641-7.758,0.961-12.238,0.961c-4.481,0-8.562-0.32-12.16-0.961
		c-10.082-1.602-17.441-4.961-23.198-8.48c-2.722-1.602-5.281-3.282-7.359-4.801c-1.523-1.039-3.121-2.16-4.882-3.519
		C201.509,315.366,192.151,307.128,178.151,288.726z M182.229,397.125c5.042-2.562,16.159-8.32,21.839-10.484l0.082-1.199
		l0.398-8.398l0.402-8.32l1.438-29.038c9.359,6.48,24.479,15.359,49.6,15.359c21.757,0,35.998-6.641,45.518-12.641
		c0.082,0,0.082,0,0.16-0.078c0.16-0.082,0.321-0.16,0.481-0.321c0.863-0.519,1.699-1.035,2.531-1.55
		c0.336-0.176,0.633-0.375,0.992-0.531l1.355,28.8l0.398,8.32l0.402,8.398l0.078,1.199c5.683,2.164,16.882,7.922,21.921,10.484
		c1.52,0.797,2.078,2.637,1.442,4.078c-4.48,9.839-23.202,42.077-75.278,42.077c-52.081,0-70.798-32.238-75.197-42.077
		C180.069,399.762,180.709,397.922,182.229,397.125z" style="fill: rgb(0,0,0);"></path>
</g>
</svg>
